<?xml version="1.0" encoding="utf-8"?>
<!-- Svg Vector Icons : http://www.onlinewebfonts.com/icon -->
<!DOCTYPE svg PUBLIC "-//W3C//DTD SVG 1.1//EN" "http://www.w3.org/Graphics/SVG/1.1/DTD/svg11.dtd">
<svg version="1.1" xmlns="http://www.w3.org/2000/svg" xmlns:xlink="http://www.w3.org/1999/xlink" x="0px" y="0px" viewBox="0 0 1000 1000" enable-background="new 0 0 1000 1000" xml:space="preserve">
<metadata> Svg Vector Icons : http://www.onlinewebfonts.com/icon </metadata>
<g><path d="M500,10C229.4,10,10,229.4,10,500c0,270.6,219.4,490,490,490c270.6,0,490-219.4,490-490C990,229.4,770.6,10,500,10z M500.8,898.4c-220,0-398.4-178.4-398.4-398.4c0-220,178.4-398.4,398.4-398.4c220,0,398.4,178.4,398.4,398.4C899.2,720,720.8,898.4,500.8,898.4z"/><path d="M701.1,343.7c0,0-20.1-1-35.3,14.2l-211.5,212L333.9,449.4c0,0-14.4-15.1-34-13.7c0,0-19.8,0.5-31.3,13.7c0,0-12,9.5-13.4,30.6c0,0-0.9,19.4,13.9,34.7l152.1,151.8c0,0,11.9,13.4,32.5,13.6c0,0,17,2.1,33.3-13.6l245-245c0,0,14.7-14.7,12.1-33.5c0,0-0.5-20.9-11.9-30.4C732.3,357.6,718.4,343.7,701.1,343.7z"/></g>
</svg>